<svg width="65" height="65" viewBox="0 0 65 65" fill="none" xmlns="http://www.w3.org/2000/svg">
<path d="M49.0913 63.5254C46.6958 62.2888 44.9233 60.2309 44.1568 57.7964C39.3102 59.5351 34.0806 60.1653 28.9135 59.6335C23.7465 59.1016 18.7951 57.4234 14.4815 54.7418C-0.274406 45.5696 -4.20308 27.0151 5.72376 13.3807C15.6506 -0.253652 35.7316 -3.88337 50.4874 5.28868C65.2064 14.4381 69.152 32.9232 59.3191 46.5477C60.5401 47.1724 61.615 48.0144 62.4818 49.025C63.3487 50.0357 63.9903 51.1949 64.3696 52.4359C64.7421 53.6645 64.8491 54.9488 64.6844 56.2155C64.5197 57.4823 64.0867 58.7066 63.4099 59.8187C62.7331 60.9308 61.8259 61.9088 60.74 62.697C59.6542 63.4851 58.411 64.0679 57.0814 64.4121C55.7522 64.7595 54.3617 64.86 52.9903 64.7078C51.6188 64.5556 50.2936 64.1537 49.0913 63.5254Z" fill="white"/>
<path d="M50.2647 61.0552C48.59 60.0862 47.3754 58.5662 46.8663 56.8021C46.7673 56.4756 46.5952 56.1719 46.3613 55.9107C46.1274 55.6494 45.8368 55.4364 45.5082 55.2854C45.1797 55.1344 44.8205 55.0487 44.4539 55.0339C44.0872 55.0191 43.7214 55.0756 43.3798 55.1996L43.2199 55.2577C36.6867 57.6298 29.4499 57.7601 22.8217 55.625C16.1935 53.4899 10.6129 49.2308 7.09181 43.6199C3.57072 38.0091 2.34234 31.4181 3.62944 25.0422C4.91653 18.6663 8.63387 12.9277 14.1073 8.86703C19.5808 4.80636 26.4479 2.69253 33.4635 2.90885C40.479 3.12518 47.1784 5.65735 52.3466 10.0462C57.5149 14.435 60.8099 20.3898 61.6341 26.8308C62.4583 33.2718 60.7571 39.7725 56.839 45.1539L56.7436 45.285C56.5387 45.5664 56.4 45.8844 56.3363 46.2185C56.2727 46.5525 56.2856 46.8952 56.3743 47.2244C56.4629 47.5535 56.6252 47.8618 56.8509 48.1294C57.0765 48.397 57.3603 48.6178 57.6841 48.7777C58.6183 49.2296 59.4445 49.8507 60.1135 50.6039C60.7825 51.3571 61.2805 52.227 61.5779 53.1618C61.8871 54.1825 61.9427 55.2546 61.7407 56.298C61.5387 57.3414 61.0842 58.3291 60.4112 59.1875C59.5469 60.3006 58.3444 61.1515 56.9561 61.6325C56.0872 61.9367 55.1658 62.093 54.2367 62.094C52.8343 62.093 51.4595 61.7335 50.2647 61.0552V61.0552Z" fill="#F0F0F0"/>
<path d="M48.9728 63.72C48.6061 63.5295 48.2515 63.3196 47.9109 63.0915C44.2487 60.6366 39.9277 59.4995 35.7448 59.8889C28.2045 60.5858 20.6373 58.8311 14.3466 54.9271C-0.519792 45.6861 -4.47797 26.9925 5.52322 13.2561C15.5244 -0.480228 35.7557 -4.13765 50.6223 5.10343C56.7803 8.94186 61.3322 14.6109 63.5222 21.1694C65.7123 27.7278 65.4088 34.7811 62.662 41.1582C62.0456 42.5605 61.7916 44.0764 61.9202 45.5853C62.0488 47.0942 62.5565 48.5547 63.403 49.8506C64.2722 51.1547 64.8034 52.6268 64.955 54.152C65.1065 55.6772 64.8744 57.2141 64.2767 58.6426C63.679 60.0712 62.7319 61.3527 61.5094 62.387C60.2869 63.4214 58.8222 64.1806 57.2296 64.6053C56.2543 64.8663 55.2442 64.9991 54.2289 65C52.3871 64.9963 50.5773 64.5556 48.9728 63.72ZM6.12479 13.6301C2.34334 18.8238 0.457733 24.9984 0.743265 31.2525C1.0288 37.5066 3.47052 43.5125 7.71194 48.3935C11.9534 53.2745 17.7724 56.7749 24.3194 58.3837C30.8664 59.9925 37.7985 59.6254 44.1037 57.336L44.4773 57.2003L44.5854 57.5575C45.3032 59.9246 47.0092 61.9313 49.3282 63.1361C51.6472 64.3409 54.3892 64.6452 56.9511 63.9821C59.5129 63.3189 61.6846 61.7425 62.9886 59.5998C64.2926 57.4571 64.6219 54.9235 63.9042 52.5564C63.5365 51.3534 62.9105 50.2311 62.0635 49.2563C61.2165 48.2816 60.1658 47.4744 58.974 46.8828L58.6203 46.7081L58.8441 46.4004C63.544 39.9408 65.2749 32.0208 63.6561 24.3822C62.0373 16.7436 57.2014 10.0118 50.2119 5.66713C43.2223 1.32243 34.6514 -0.279409 26.3839 1.21386C18.1164 2.70714 10.8292 7.17325 6.1248 13.6301H6.12479Z" fill="#3F3D56"/>
<path d="M45.737 33.5152C47.816 33.5152 49.5013 31.958 49.5013 30.0371C49.5013 28.1162 47.816 26.559 45.737 26.559C43.6581 26.559 41.9728 28.1162 41.9728 30.0371C41.9728 31.958 43.6581 33.5152 45.737 33.5152Z" fill="#6C63FF"/>
<path d="M32.8943 33.5152C34.9732 33.5152 36.6585 31.958 36.6585 30.0371C36.6585 28.1162 34.9732 26.559 32.8943 26.559C30.8153 26.559 29.13 28.1162 29.13 30.0371C29.13 31.958 30.8153 33.5152 32.8943 33.5152Z" fill="#6C63FF"/>
<path d="M20.0516 33.5152C22.1305 33.5152 23.8159 31.958 23.8159 30.0371C23.8159 28.1162 22.1305 26.559 20.0516 26.559C17.9727 26.559 16.2874 28.1162 16.2874 30.0371C16.2874 31.958 17.9727 33.5152 20.0516 33.5152Z" fill="#6C63FF"/>
</svg>
