<svg width="15" height="15" viewBox="0 0 15 15" fill="none" xmlns="http://www.w3.org/2000/svg">
<path d="M11.805 14.5413C11.72 14.5413 11.6346 14.521 11.5565 14.48L7.50002 12.3493L3.44358 14.48C3.26356 14.5745 3.04545 14.5587 2.88094 14.4393C2.71639 14.3199 2.63403 14.1175 2.66839 13.9172L3.44307 9.40445L0.161347 6.20852C0.0157289 6.06671 -0.0366713 5.85457 0.0261576 5.66139C0.0889865 5.46817 0.256188 5.32734 0.457455 5.29809L4.99272 4.63972L7.02094 0.53387C7.11091 0.351664 7.29666 0.236328 7.50002 0.236328C7.70334 0.236328 7.88913 0.351664 7.97906 0.53387L10.0073 4.63972L14.5425 5.29809C14.7438 5.32734 14.9109 5.46812 14.9738 5.66139C15.0367 5.85457 14.9843 6.06671 14.8386 6.20852L11.5568 9.40449L12.3316 13.9172C12.3659 14.1175 12.2835 14.32 12.119 14.4394C12.026 14.5069 11.9158 14.5413 11.805 14.5413ZM1.68236 6.19908L4.39008 8.83597C4.51599 8.95857 4.57348 9.13531 4.54369 9.30837L3.9045 13.0317L7.25136 11.2737C7.40702 11.192 7.59294 11.192 7.7486 11.2737L11.0955 13.0317L10.4562 9.30837C10.4265 9.13518 10.484 8.95857 10.6099 8.83597L13.3176 6.19908L9.57573 5.65584C9.40173 5.63056 9.25128 5.52142 9.17345 5.36385L7.50006 1.97619L5.82663 5.36385C5.74885 5.52137 5.59836 5.63056 5.42436 5.65584L1.68236 6.19908Z" fill="#0A0A0A"/>
</svg>
