<svg width="20" height="20" viewBox="0 0 20 20" fill="none" xmlns="http://www.w3.org/2000/svg">
<path d="M9.99931 3.33257L9.26495 2.53702C7.38727 0.50288 4.4029 0.486281 2.5068 2.49612L9.99931 3.33257ZM9.99931 3.33257L10.7341 2.53746M9.99931 3.33257L10.7341 2.53746M10.7341 2.53746C10.7439 2.52695 10.7522 2.51764 10.7584 2.51067L10.7723 2.49483C10.7731 2.49392 10.7738 2.49316 10.7744 2.49253C12.6951 0.460835 15.7255 0.507567 17.5941 2.60791C19.5077 4.7589 19.4606 8.22509 17.497 10.3122C17.4967 10.3125 17.4964 10.3128 17.496 10.3131L17.4815 10.3275C17.475 10.334 17.4662 10.3429 17.4562 10.3532L16.8151 11.0202L16.8444 11.053L9.80228 18.5197M10.7341 2.53746L9.80228 18.5197M9.80228 18.5197L2.46014 10.2668L2.36045 10.1517C0.48887 7.99136 0.558451 4.56246 2.50667 2.49626L9.80228 18.5197ZM17.4993 10.3098C17.4995 10.3097 17.4995 10.3096 17.4992 10.31L17.4993 10.3098Z" stroke="#0A0A0A" stroke-width="2"/>
</svg>
