<svg width="20" height="20" viewBox="0 0 20 20" fill="none" xmlns="http://www.w3.org/2000/svg">
<path d="M17.6527 0H2.34728C1.05276 0 0 1.05276 0 2.34728V17.6527C0 18.9472 1.05276 20 2.34728 20H17.6527C18.9472 20 20 18.9472 20 17.6527V2.34728C20 1.05276 18.9469 0 17.6527 0ZM18.5 17.6527C18.5 18.5157 18.363 18.5 17.5 18.5H2.34728C1.48426 18.5 1.5 18.5157 1.5 17.6527V2.5C1.5 1.63698 1.48426 1.5 2.34728 1.5H17.5C18.363 1.5 18.5 1.63698 18.5 2.5V17.6527ZM14.5 6.5L11 10L14.5 13.5C14.653 13.653 14.5461 14.2398 14.3931 14.3927C14.3168 14.469 14.1002 14.5 14 14.5C13.8998 14.5 13.5763 14.5763 13.5 14.5L10 11L6.5 14.5C6.42371 14.5763 5.984 14.5074 5.88385 14.5074C5.7837 14.5074 5.68355 14.469 5.60726 14.3927C5.4543 14.2398 5.34704 13.653 5.5 13.5L9 10L5.5 6.5C5.34704 6.34704 5.4543 5.75983 5.60726 5.60687C5.76023 5.4539 6.41702 5.4539 6.56999 5.60687L10 9L13.5 5.5C13.653 5.34704 14.2402 5.4539 14.3931 5.60687C14.5461 5.75983 14.6526 6.34704 14.5 6.5Z" fill="#0A0A0A"/>
</svg>
