<svg width="65" height="65" viewBox="0 0 65 65" fill="none" xmlns="http://www.w3.org/2000/svg">
<g clip-path="url(#clip0_91_1138)">
<path d="M32.5082 65.0011C50.462 65.0011 65.0164 50.4501 65.0164 32.5005C65.0164 14.551 50.462 0 32.5082 0C14.5544 0 0 14.551 0 32.5005C0 50.4501 14.5544 65.0011 32.5082 65.0011Z" fill="#6C63FF"/>
<path d="M46.0075 29.7713H34.9547V18.7212C34.9547 18.0315 34.6807 17.3702 34.193 16.8825C33.7052 16.3949 33.0437 16.1209 32.3539 16.1209C31.6641 16.1209 31.0026 16.3949 30.5148 16.8825C30.0271 17.3702 29.7531 18.0315 29.7531 18.7212V29.7713H18.7003C18.0105 29.7713 17.349 30.0453 16.8613 30.5329C16.3735 31.0205 16.0995 31.6819 16.0995 32.3715C16.0995 33.0611 16.3735 33.7225 16.8613 34.2101C17.349 34.6978 18.0105 34.9717 18.7003 34.9717H29.7531V46.0219C29.7531 46.7115 30.0271 47.3729 30.5148 47.8605C31.0026 48.3481 31.6641 48.6221 32.3539 48.6221C33.0437 48.6221 33.7052 48.3481 34.193 47.8605C34.6807 47.3729 34.9547 46.7115 34.9547 46.0219V34.9717H46.0075C46.6973 34.9717 47.3588 34.6978 47.8465 34.2101C48.3343 33.7225 48.6083 33.0611 48.6083 32.3715C48.6083 31.6819 48.3343 31.0205 47.8465 30.5329C47.3588 30.0453 46.6973 29.7713 46.0075 29.7713Z" fill="white"/>
</g>
<defs>
<clipPath id="clip0_91_1138">
<rect width="65" height="65" fill="white"/>
</clipPath>
</defs>
</svg>
