<svg width="32" height="30" viewBox="0 0 32 30" fill="none" xmlns="http://www.w3.org/2000/svg">
<path d="M9.10433 3.4058C9.10433 2.39131 9.86954 1.59421 10.8435 1.59421H30.113C31.0869 1.59421 31.8522 2.39131 31.8522 3.4058C31.8522 4.42029 31.0869 5.21739 30.113 5.21739H10.8435C9.86954 5.21739 9.10433 4.42029 9.10433 3.4058ZM30.113 13.1884H10.8435C9.86954 13.1884 9.10433 13.9855 9.10433 15C9.10433 16.0145 9.86954 16.8116 10.8435 16.8116H30.113C31.0869 16.8116 31.8522 16.0145 31.8522 15C31.8522 13.9855 31.0869 13.1884 30.113 13.1884ZM30.113 24.7826H10.8435C9.86954 24.7826 9.10433 25.5797 9.10433 26.5942C9.10433 27.6087 9.86954 28.4058 10.8435 28.4058H30.113C31.0869 28.4058 31.8522 27.6087 31.8522 26.5942C31.8522 25.5797 31.0869 24.7826 30.113 24.7826ZM3.33041 12.6087C1.97389 12.6087 0.89563 13.7681 0.89563 15.1812C0.89563 16.5942 1.97389 17.7536 3.33041 17.7536C4.68693 17.7536 5.7652 16.5942 5.7652 15.1812C5.7652 13.7681 4.65215 12.6087 3.33041 12.6087ZM3.33041 0.869568C1.97389 0.869568 0.89563 2.02899 0.89563 3.44203C0.89563 4.85508 1.97389 6.0145 3.33041 6.0145C4.68693 6.0145 5.7652 4.85508 5.7652 3.44203C5.7652 2.02899 4.65215 0.869568 3.33041 0.869568ZM3.33041 23.9855C1.97389 23.9855 0.89563 25.1449 0.89563 26.558C0.89563 27.971 1.97389 29.1304 3.33041 29.1304C4.68693 29.1304 5.7652 27.971 5.7652 26.558C5.7652 25.1449 4.65215 23.9855 3.33041 23.9855Z" fill="black"/>
</svg>
