<svg width="65" height="65" viewBox="0 0 65 65" fill="none" xmlns="http://www.w3.org/2000/svg">
<g clip-path="url(#clip0_91_1129)">
<path d="M55.4809 9.5191C49.3426 3.38084 41.1809 0 32.5 0C23.8191 0 15.6574 3.38084 9.51907 9.5191C3.38075 15.6575 0 23.8191 0 32.5C0 40.4235 2.81627 47.9143 7.97717 53.8291C8.46956 54.3948 8.98393 54.9458 9.51907 55.481C9.64492 55.6068 9.77199 55.7327 9.90028 55.8548C10.6138 56.5464 11.353 57.2013 12.1167 57.817C12.1203 57.8207 12.1227 57.8232 12.1264 57.8256C17.8823 62.4745 24.9969 65 32.5 65C41.1809 65 49.3426 61.6193 55.4809 55.481C55.9379 55.024 56.3789 54.5561 56.8042 54.0783C62.1031 48.1257 65 40.5359 65 32.5C65 23.8191 61.6193 15.6575 55.4809 9.5191ZM56.7247 53.7741C55.7632 54.8676 54.7295 55.8964 53.6299 56.8507C51.5443 58.665 49.2229 60.2142 46.7194 61.4483C45.8409 61.882 44.9404 62.2766 44.0192 62.6298C40.4405 64.0031 36.5564 64.7556 32.5 64.7556C28.5853 64.7556 24.832 64.0544 21.3584 62.7715C19.9325 62.246 18.5543 61.6218 17.2311 60.907C17.0368 60.802 16.8438 60.6956 16.652 60.5869C15.6428 60.0151 14.6665 59.3908 13.7294 58.7163C12.3867 57.7535 11.1209 56.6893 9.94425 55.5359C9.28449 54.8896 8.65405 54.2164 8.05171 53.5163C3.1877 47.8667 0.244361 40.5212 0.244361 32.5C0.244361 14.7143 14.7142 0.244361 32.5 0.244361C50.2858 0.244361 64.7556 14.7143 64.7556 32.5C64.7556 40.6446 61.7219 48.0927 56.7247 53.7741Z" fill="#3F3D56"/>
<path d="M56.7247 53.7741C55.7632 54.8676 54.7295 55.8964 53.6299 56.8507C51.5443 58.665 49.2229 60.2142 46.7194 61.4483C45.8409 61.882 44.9404 62.2766 44.0192 62.6298C40.4405 64.0031 36.5564 64.7556 32.5 64.7556C28.5853 64.7556 24.832 64.0544 21.3584 62.7715C19.9325 62.246 18.5543 61.6218 17.2311 60.907C17.0368 60.802 16.8438 60.6956 16.652 60.5869C15.6428 60.0151 14.6665 59.3908 13.7294 58.7163C12.3867 57.7535 11.1209 56.6893 9.94425 55.5359C9.28449 54.8896 8.65405 54.2164 8.05171 53.5163C3.1877 47.8667 0.244361 40.5212 0.244361 32.5C0.244361 14.7143 14.7142 0.244361 32.5 0.244361C50.2858 0.244361 64.7556 14.7143 64.7556 32.5C64.7556 40.6446 61.7219 48.0927 56.7247 53.7741Z" fill="#02181E"/>
<path d="M33.0815 42.4306C38.9082 42.4306 43.6317 37.7072 43.6317 31.8805C43.6317 26.0538 38.9082 21.3303 33.0815 21.3303C27.2548 21.3303 22.5314 26.0538 22.5314 31.8805C22.5314 37.7072 27.2548 42.4306 33.0815 42.4306Z" fill="#EBEAE9"/>
<path d="M24.3491 44.793L26.5484 39.1727L37.9112 37.4622L39.132 49.9034L27.647 50.1478L24.3491 44.793Z" fill="#EBEAE9"/>
<path d="M43.7338 33.827C43.5969 34.3756 43.3201 35.6817 42.8879 35.6881C42.5347 35.6933 42.1967 30.0269 42.5495 29.0897C42.9547 28.0129 41.8899 26.6509 41.0877 25.9517C39.6455 24.6945 36.444 27.394 33.1886 26.1711C33.1023 26.1388 33.1195 26.1424 32.0915 25.7323C28.9283 24.4702 28.762 24.4338 28.5808 24.4158C27.0474 24.2641 25.176 25.5189 24.4118 27.0488C23.6174 28.6392 24.2812 30.0033 23.5341 33.8508C23.4471 34.2993 23.3104 34.9385 23.0953 34.9479C22.7021 34.965 22.3182 32.8649 22.2176 32.3149C21.7963 30.0103 21.3902 27.7885 22.2176 25.2934C22.3079 25.0213 22.8641 24.0112 23.973 22.0021C25.5704 19.1079 26.3738 17.6553 26.606 17.3943C28.2711 15.5218 31.3021 13.8135 33.8469 14.5419C35.1331 14.91 34.9024 15.5018 36.4799 16.0778C39.291 17.1042 41.7342 15.849 42.1848 16.7361C42.4235 17.206 41.7557 17.5934 41.746 18.4914C41.7294 20.0323 43.6782 20.4776 44.8178 22.0021C45.4305 22.8218 46.4792 22.8305 43.7338 33.827L43.7338 33.827V33.827Z" fill="#2F2E41"/>
<path d="M56.8041 54.0783C56.3789 54.5561 55.9379 55.024 55.4809 55.481C49.3426 61.6193 41.1809 65 32.5 65C24.9969 65 17.8823 62.4745 12.1264 57.8256C12.1227 57.8232 12.1203 57.8207 12.1166 57.817C11.353 57.2013 10.6138 56.5464 9.90027 55.8548C9.91369 55.7473 9.92837 55.641 9.94424 55.5359C10.0444 54.8273 10.1556 54.1516 10.2802 53.5297C11.3005 48.4324 24.7244 43.0809 25.0739 42.9415C25.0787 42.9403 25.0812 42.9392 25.0812 42.9392C25.0812 42.9392 26.8088 49.3072 34.2117 49.2254C39.2541 49.1704 38.2767 42.9392 38.2767 42.9392C38.2767 42.9392 38.3378 42.9513 38.4526 42.9758C39.909 43.2849 50.0207 45.5061 54.0099 48.5375C55.2255 49.4611 56.0979 51.4283 56.7247 53.7741C56.7516 53.8743 56.7772 53.9769 56.8041 54.0783Z" fill="#6C63FF"/>
</g>
<defs>
<clipPath id="clip0_91_1129">
<rect width="65" height="65" fill="white"/>
</clipPath>
</defs>
</svg>
