<svg width="20" height="20" viewBox="0 0 20 20" fill="none" xmlns="http://www.w3.org/2000/svg">
<g clip-path="url(#clip0_225_152)">
<path d="M19.1462 0.674039L19.1221 0.652083C18.6618 0.231597 18.0651 0 17.4419 0C16.7433 0 16.0725 0.295745 15.6015 0.811334L6.69587 10.5612C6.61469 10.6501 6.55313 10.7549 6.51506 10.8691L5.46789 14.0083C5.34681 14.3713 5.40758 14.7727 5.63041 15.082C5.85501 15.3937 6.21685 15.5799 6.59841 15.5799H6.59847C6.76351 15.5799 6.92483 15.5459 7.07783 15.479L10.1098 14.1526C10.22 14.1044 10.3189 14.0336 10.4 13.9447L19.3057 4.19489C20.2325 3.18039 20.161 1.60106 19.1462 0.674039ZM7.47424 13.4284L8.08872 11.5863L8.14054 11.5296L9.30517 12.5933L9.25335 12.6501L7.47424 13.4284ZM18.036 3.03501L10.465 11.3236L9.30042 10.2599L16.8713 1.97121C17.0194 1.80909 17.2221 1.71978 17.442 1.71978C17.6349 1.71978 17.8196 1.79155 17.9626 1.92214L17.9866 1.9441C18.301 2.23124 18.3231 2.72063 18.036 3.03501Z" fill="#0A0A0A"/>
<path d="M17.4185 7.93322C16.9436 7.93322 16.5586 8.31822 16.5586 8.79311V16.0934C16.5586 17.2992 15.5776 18.2802 14.3718 18.2802H3.94999C2.74414 18.2802 1.76318 17.2992 1.76318 16.0934V5.75626C1.76318 4.55047 2.74419 3.56945 3.94999 3.56945H11.4933C11.9682 3.56945 12.3532 3.18445 12.3532 2.70956C12.3532 2.23467 11.9682 1.84967 11.4933 1.84967H3.94999C1.79585 1.84967 0.043396 3.60218 0.043396 5.75626V16.0933C0.043396 18.2474 1.79591 19.9999 3.94999 19.9999H14.3717C16.5258 19.9999 18.2783 18.2474 18.2783 16.0933V8.79311C18.2784 8.31822 17.8934 7.93322 17.4185 7.93322Z" fill="#0A0A0A"/>
</g>
<defs>
<clipPath id="clip0_225_152">
<rect width="20" height="20" fill="white"/>
</clipPath>
</defs>
</svg>
