<svg width="8" height="7" viewBox="0 0 8 7" fill="none" xmlns="http://www.w3.org/2000/svg">
<path d="M2.75652 6.82184C2.74088 6.82184 2.72522 6.82145 2.70953 6.82068C2.57115 6.81393 2.43585 6.77698 2.3129 6.71237C2.18996 6.64776 2.08229 6.55701 1.99728 6.44635L0.655066 4.70074C0.498779 4.49701 0.428763 4.23889 0.460376 3.98301C0.491988 3.72713 0.622646 3.49437 0.823691 3.33581L0.871973 3.29779C1.0734 3.13971 1.32859 3.06889 1.58156 3.10087C1.83454 3.13284 2.06465 3.265 2.22143 3.46836C2.29707 3.56675 2.39284 3.64745 2.50218 3.70492C2.61152 3.7624 2.73185 3.7953 2.85492 3.80136C2.978 3.80743 3.10091 3.78653 3.21526 3.74009C3.32961 3.69364 3.43268 3.62275 3.51743 3.53227L6.2428 0.622187C6.32965 0.529451 6.43371 0.454929 6.54903 0.402874C6.66435 0.35082 6.78868 0.322253 6.91492 0.318805C7.04115 0.315358 7.16683 0.337095 7.28476 0.382779C7.40269 0.428463 7.51057 0.497198 7.60224 0.585058L7.64673 0.627701C7.83185 0.805117 7.93972 1.04965 7.9466 1.30752C7.95348 1.56538 7.85881 1.81545 7.68342 2.00271L3.45437 6.51809C3.36458 6.61406 3.25638 6.69049 3.13639 6.74272C3.0164 6.79495 2.88714 6.82187 2.75652 6.82184Z" fill="white"/>
</svg>
