<svg width="175" height="109" viewBox="0 0 175 109" fill="none" xmlns="http://www.w3.org/2000/svg">
<g clip-path="url(#clip0_91_1043)">
<path d="M135.645 18.0581C135.32 17.4886 133.912 18.0984 133.653 17.5815C133.395 17.0666 134.703 16.282 135.45 14.4896C135.585 14.1664 136.434 12.1294 135.806 11.5009C134.614 10.3095 129.161 15.226 127.253 13.6171C126.834 13.264 126.542 12.5591 125.274 11.4147C124.77 10.9595 124.465 10.7539 124.17 10.8304C123.751 10.9389 123.718 11.5205 123.269 12.664C122.596 14.3789 122.197 14.2754 121.805 15.6436C121.514 16.6593 121.58 17.2498 121.238 17.3649C120.753 17.5277 120.306 16.4503 119.692 16.5468C119.065 16.6453 118.686 17.8996 118.566 18.8388C118.341 20.6013 118.965 21.7642 119.31 22.9871C119.686 24.3161 119.909 26.3371 119.041 29.1982L110.455 54.3049C112.351 49.1531 117.839 35.0306 120.146 29.7826C120.811 28.2676 121.547 26.7309 123.056 26.1244C124.509 25.5405 126.505 25.8891 129.049 25.253C129.346 25.1787 130.171 24.9609 130.275 24.4576C130.361 24.0414 129.876 23.8091 129.95 23.4194C130.05 22.8965 131.004 22.8901 132.176 22.287C133.003 21.8616 133.517 21.3558 133.96 20.9208C134.094 20.7897 136.078 18.8161 135.645 18.0581H135.645V18.0581Z" fill="#F2F2F2"/>
<path d="M101.865 31.2753C101.502 31.2767 101.384 32.1698 101.065 32.1525C100.747 32.1353 100.753 31.2426 100.121 30.3448C100.007 30.1829 99.2891 29.1626 98.8105 29.3015C97.9033 29.5647 98.655 33.7609 97.3435 34.2687C97.0557 34.3801 96.638 34.3258 95.7311 34.6412C95.3703 34.7667 95.1851 34.8627 95.1361 35.0351C95.0666 35.2797 95.3321 35.4644 95.7433 36.023C96.36 36.8608 96.1962 37.0338 96.73 37.6284C97.1263 38.0698 97.4248 38.2063 97.3803 38.4141C97.3174 38.7081 96.6791 38.6246 96.5474 38.9655C96.413 39.3133 96.8968 39.8684 97.3064 40.2004C98.075 40.8234 98.8049 40.8413 99.483 41.018C100.22 41.2101 101.24 41.6797 102.343 42.9471L111.738 54.5648C109.849 52.1128 104.754 45.2422 102.938 42.5533C102.413 41.777 101.899 40.9592 102.047 40.0153C102.191 39.1066 102.931 38.1906 103.365 36.711C103.415 36.5382 103.55 36.0553 103.342 35.8572C103.17 35.6934 102.92 35.8735 102.757 35.723C102.539 35.5213 102.811 35.0335 102.864 34.2625C102.901 33.7187 102.811 33.3105 102.733 32.9594C102.709 32.8536 102.349 31.2733 101.865 31.2753V31.2753H101.865Z" fill="#F2F2F2"/>
<path d="M109.111 32.9633L108.892 30.936L108.992 30.7823C109.455 30.0717 109.69 29.3776 109.693 28.7188C109.694 28.6141 109.689 28.5094 109.684 28.4027C109.665 27.9798 109.642 27.4541 109.906 26.8413C110.054 26.4997 110.47 25.7087 111.095 25.8066C111.264 25.8311 111.391 25.9114 111.488 26.0053C111.502 25.9819 111.516 25.9584 111.532 25.9329C111.727 25.6246 111.881 25.4924 112.029 25.3652C112.144 25.2673 112.261 25.1664 112.446 24.9276C112.527 24.8229 112.591 24.7308 112.644 24.6535C112.806 24.4196 113.017 24.1406 113.39 24.1455C113.788 24.165 113.996 24.5067 114.134 24.7328C114.381 25.1361 114.493 25.4268 114.567 25.6197C114.594 25.6901 114.624 25.7694 114.64 25.7939C114.768 25.9897 115.811 25.8066 116.204 25.7401C117.086 25.5874 117.849 25.4552 118.164 26.0328C118.389 26.4458 118.222 26.9921 117.651 27.6998C117.474 27.9201 117.284 28.0875 117.117 28.2186C117.256 28.3048 117.38 28.4369 117.431 28.6444C117.55 29.1359 117.143 29.6282 116.221 30.1099C115.993 30.2303 115.685 30.3908 115.253 30.4681C115.05 30.5044 114.867 30.5132 114.71 30.5181C114.707 30.612 114.686 30.7138 114.631 30.8186C114.469 31.1269 114.132 31.2738 113.625 31.2385C113.067 31.2082 112.607 31.0976 112.201 31.0006C111.847 30.9165 111.542 30.845 111.302 30.8616C110.858 30.8988 110.516 31.2679 110.114 31.7466L109.111 32.9633H109.111Z" fill="#F2F2F2"/>
<path d="M110.126 20.8929L108.292 21.6268L108.123 21.5654C107.344 21.2812 106.637 21.2205 106.022 21.3848C105.924 21.4109 105.828 21.4422 105.73 21.474C105.34 21.6002 104.856 21.7572 104.218 21.6475C103.862 21.5855 103.02 21.3685 102.952 20.7159C102.932 20.5407 102.975 20.3925 103.038 20.2716C103.012 20.2634 102.987 20.2547 102.959 20.2455C102.622 20.1282 102.46 20.0069 102.304 19.89C102.184 19.8003 102.06 19.7075 101.79 19.5825C101.672 19.5276 101.57 19.4875 101.485 19.4536C101.226 19.3506 100.912 19.2092 100.822 18.834C100.739 18.4294 101.005 18.1335 101.181 17.9374C101.494 17.5875 101.737 17.4016 101.897 17.2783C101.956 17.2335 102.022 17.1826 102.041 17.1608C102.191 16.9823 101.756 15.982 101.595 15.6045C101.228 14.7574 100.912 14.0245 101.37 13.5622C101.698 13.2311 102.249 13.2606 103.054 13.654C103.304 13.7766 103.508 13.924 103.673 14.0592C103.718 13.8977 103.81 13.7392 103.99 13.6359C104.418 13.392 104.98 13.6757 105.663 14.4781C105.833 14.6772 106.061 14.9456 106.242 15.3592C106.328 15.5541 106.382 15.7355 106.426 15.8915C106.515 15.871 106.615 15.8664 106.727 15.8953C107.055 15.9794 107.277 16.2802 107.373 16.7986C107.487 17.3668 107.5 17.8565 107.513 18.2882C107.524 18.6652 107.535 18.9896 107.611 19.2259C107.759 19.6624 108.189 19.9125 108.737 20.1945L110.126 20.8928L110.126 20.8929V20.8929Z" fill="#F2F2F2"/>
<path d="M109.111 14.9204L108.892 12.8931L108.992 12.7394C109.455 12.0287 109.69 11.3347 109.693 10.6759C109.694 10.5712 109.689 10.4664 109.684 10.3597C109.665 9.93685 109.642 9.41118 109.906 8.7984C110.054 8.45677 110.47 7.66582 111.095 7.76371C111.264 7.78818 111.391 7.86844 111.488 7.96242C111.502 7.93893 111.516 7.91543 111.532 7.88998C111.727 7.58163 111.881 7.44948 112.029 7.32223C112.144 7.22434 112.261 7.12352 112.446 6.88466C112.527 6.77993 112.591 6.68791 112.644 6.61058C112.806 6.37662 113.017 6.09763 113.39 6.10253C113.788 6.12211 113.996 6.46374 114.134 6.68986C114.381 7.09316 114.493 7.3839 114.567 7.57673C114.594 7.64722 114.624 7.7265 114.64 7.75098C114.768 7.94676 115.811 7.7637 116.204 7.69713C117.086 7.54443 117.849 7.41228 118.164 7.98983C118.389 8.40291 118.222 8.94914 117.651 9.65688C117.474 9.87714 117.284 10.0445 117.117 10.1757C117.256 10.2618 117.38 10.394 117.431 10.6015C117.55 11.0929 117.143 11.5853 116.221 12.0669C115.993 12.1873 115.685 12.3479 115.253 12.4252C115.05 12.4614 114.867 12.4702 114.71 12.4751C114.707 12.5691 114.686 12.6709 114.631 12.7757C114.469 13.084 114.132 13.2308 113.625 13.1956C113.067 13.1652 112.607 13.0546 112.201 12.9577C111.847 12.8735 111.542 12.8021 111.302 12.8187C110.858 12.8559 110.516 13.225 110.114 13.7036L109.111 14.9204H109.111Z" fill="#F2F2F2"/>
<path d="M111.109 54.2719L110.7 54.0056L110.601 53.5152L110.7 54.0056L110.223 54.0624C110.215 54.0164 110.189 53.9107 110.15 53.7452C109.937 52.8388 109.285 50.0803 108.742 45.7359C108.363 42.7033 108.148 39.5856 108.104 36.4678C108.06 33.3451 108.202 30.9811 108.316 29.0811C108.402 27.648 108.507 26.2834 108.61 24.954C108.883 21.4026 109.141 18.048 108.949 14.334C108.907 13.5049 108.818 11.7791 107.846 9.94273C107.283 8.87769 106.507 7.93209 105.539 7.13331L106.141 6.34824C107.209 7.2312 108.068 8.27862 108.693 9.46113C109.771 11.4972 109.868 13.3777 109.914 14.2812C110.11 18.0607 109.849 21.4477 109.572 25.0334C109.471 26.3578 109.366 27.7165 109.28 29.1437C109.167 31.0261 109.026 33.3696 109.07 36.4521C109.113 39.5327 109.325 42.6123 109.699 45.6067C110.236 49.8963 110.878 52.6137 111.089 53.5064C111.201 53.9831 111.224 54.083 111.109 54.2719V54.2719H111.109Z" fill="#F2F2F2"/>
<path d="M103.768 8.72598C103.728 8.72598 103.688 8.725 103.647 8.72206C102.825 8.67605 102.063 8.16507 101.383 7.20379C101.064 6.75154 100.901 6.23567 100.576 5.20685C100.525 5.04827 100.28 4.24362 100.131 3.13649C100.033 2.41308 100.046 2.11061 100.184 1.84337C100.337 1.54579 100.585 1.33827 100.864 1.19829C100.852 1.10235 100.862 1.00349 100.902 0.902657C101.067 0.484673 101.504 0.539493 101.741 0.565921C101.861 0.581582 102.01 0.602142 102.172 0.593326C102.425 0.580606 102.562 0.502285 102.768 0.384816C102.966 0.272242 103.212 0.132261 103.576 0.0549283C104.295 -0.100713 104.897 0.110729 105.096 0.180222C106.14 0.541433 106.655 1.38426 107.251 2.36021C107.37 2.55599 107.778 3.26862 108.047 4.24556C108.242 4.95036 108.214 5.26361 108.156 5.49658C108.037 5.97526 107.756 6.24935 107.044 6.85431C106.3 7.48765 105.926 7.80482 105.605 7.99766C104.859 8.44502 104.39 8.72595 103.768 8.72595V8.72598Z" fill="#F2F2F2"/>
<path d="M141.506 44.2353C147.762 44.2353 152.834 38.9715 152.834 32.4782C152.834 25.9849 147.762 20.721 141.506 20.721C135.249 20.721 130.177 25.9849 130.177 32.4782C130.177 38.9715 135.249 44.2353 141.506 44.2353Z" fill="#FF6884"/>
<path d="M130.318 107.035L117.517 107.219L112.385 47.8271C112.26 46.3855 112.709 44.928 113.616 43.8283L126.203 28.566C127.965 26.4297 130.961 26.0442 133.173 27.6702L148.938 39.2633C150.225 40.209 151.022 41.6877 151.125 43.3201L162.633 83.4463L161.09 96.828L161.105 96.8465L162.929 106.569L130.318 107.035Z" fill="#E6E6E6"/>
<path d="M127.637 42.3755L127.431 39.619C127.376 38.8913 127.902 38.2534 128.603 38.1969L132.335 37.8964C133.036 37.8399 133.651 38.3859 133.705 39.1136L133.911 41.8701C133.966 42.5978 133.44 43.2357 132.739 43.2922L129.007 43.5927C128.306 43.6492 127.691 43.1032 127.637 42.3755V42.3755Z" fill="#6C63FF"/>
<path d="M121.349 64.408L120.586 54.209C120.532 53.4813 121.058 52.8434 121.759 52.7869L127.283 52.342C127.984 52.2855 128.599 52.8315 128.653 53.5592L129.416 63.7582C129.471 64.4859 128.944 65.1238 128.243 65.1802L122.719 65.6252C122.018 65.6817 121.403 65.1356 121.349 64.408V64.408Z" fill="#3F3D56"/>
<path d="M135.622 87.276C134.952 87.3053 134.372 86.7863 134.3 86.0947L133.284 76.2593C133.24 75.8395 133.386 75.4343 133.685 75.1472C133.983 74.8603 134.384 74.7403 134.784 74.8167L135.069 74.8716C135.636 74.9807 136.064 75.4737 136.108 76.0706L136.84 85.8512C136.867 86.2124 136.754 86.5607 136.522 86.8318C136.301 87.091 135.999 87.2463 135.668 87.273C135.653 87.2742 135.637 87.2753 135.622 87.276Z" fill="#3F3D56"/>
<path d="M123.929 86.8494L123.164 76.6207C123.11 75.8987 123.611 75.2753 124.305 75.2015L129.317 74.67C130.012 74.604 130.641 75.1237 130.715 75.8462L131.779 86.1786C131.816 86.5374 131.714 86.8878 131.491 87.1652C131.269 87.4427 130.956 87.6109 130.609 87.6388L125.299 88.0665C124.598 88.123 123.983 87.577 123.929 86.8494Z" fill="#3F3D56"/>
<path d="M154.13 91.4484L158.609 98.3928L159.671 106.523L162.82 106.477L161.021 96.8882L153.871 88.1049C153.392 89.1904 153.49 90.4562 154.13 91.4484V91.4484Z" fill="#CCCCCC"/>
<path d="M159.37 104.196L146.611 105.406L146.627 105.592L159.387 104.382L159.37 104.196Z" fill="#3F3D56"/>
<path d="M158.473 102.616L146.369 103.69L146.384 103.876L158.488 102.802L158.473 102.616Z" fill="#3F3D56"/>
<path d="M157.719 100.988L146.151 102.156L146.169 102.342L157.736 101.174L157.719 100.988Z" fill="#3F3D56"/>
<path d="M157.234 99.3486L146.138 100.628L146.158 100.814L157.254 99.5344L157.234 99.3486Z" fill="#3F3D56"/>
<path d="M156.585 97.906L145.926 99.157L145.946 99.3427L156.606 98.0917L156.585 97.906Z" fill="#3F3D56"/>
<path d="M155.773 96.6558L145.362 97.4943L145.376 97.6806L155.787 96.842L155.773 96.6558Z" fill="#3F3D56"/>
<path d="M155.137 95.3936L145.028 96.3316L145.044 96.5176L155.153 95.5796L155.137 95.3936Z" fill="#3F3D56"/>
<path d="M154.5 94.1357L144.721 95.2632L144.741 95.4489L154.52 94.3214L154.5 94.1357Z" fill="#3F3D56"/>
<path d="M154.046 92.8688L144.378 93.8252L144.395 94.0112L154.063 93.0548L154.046 92.8688Z" fill="#3F3D56"/>
<path d="M153.231 91.638L143.984 92.6853L144.003 92.8711L153.251 91.8238L153.231 91.638Z" fill="#3F3D56"/>
<path d="M152.79 90.5319L143.609 91.3651L143.624 91.5511L152.805 90.718L152.79 90.5319Z" fill="#3F3D56"/>
<path d="M142.644 87.4946L141.7 74.8767C141.646 74.149 142.172 73.5111 142.873 73.4546L148.756 72.9808C149.457 72.9243 150.072 73.4704 150.126 74.1981L151.07 86.8159C151.124 87.5435 150.598 88.1814 149.897 88.2379L144.014 88.7117C143.313 88.7682 142.698 88.2221 142.644 87.4946Z" fill="#6C63FF"/>
<path d="M130.318 107.035L119.852 107.186L119.768 107.187L119.143 98.8221C119.063 97.7643 119.828 96.8368 120.848 96.7547L131.134 95.9261C132.153 95.844 133.047 96.638 133.126 97.6958L133.804 106.755L133.714 106.762L130.318 107.035V107.035Z" fill="#CCCCCC"/>
<path d="M141.649 64.5512L140.929 54.9103C140.874 54.1826 141.4 53.5447 142.101 53.4882L144.04 53.3321C144.741 53.2756 145.356 53.8216 145.41 54.5493L146.131 64.1902C146.186 64.9178 145.66 65.5557 144.959 65.6121L143.02 65.7683C142.319 65.8248 141.704 65.2788 141.649 64.5512Z" fill="#3F3D56"/>
<path d="M146.781 106.646L145.631 98.5022L143.433 90.8175L142.825 88.7139C141.855 88.1381 140.669 88.961 140.811 90.111L140.923 91.0197L143.121 98.7043L144.271 106.848" fill="#CCCCCC"/>
<path d="M17.9538 108.536L5.15263 108.72L0.0204415 49.328C-0.104087 47.8865 0.344546 46.4289 1.25146 45.3293L13.839 30.067C15.6011 27.9306 18.5971 27.5452 20.8083 29.1712L36.574 40.7642C37.8602 41.71 38.6572 43.1887 38.7606 44.8211L50.2689 84.9473L48.7254 98.329L48.7405 98.3475L50.5647 108.07L17.9538 108.536H17.9538Z" fill="#E6E6E6"/>
<path d="M15.2725 43.8765L15.0663 41.1199C15.0119 40.3923 15.5381 39.7544 16.2391 39.6979L19.9709 39.3973C20.672 39.3409 21.2866 39.8869 21.341 40.6145L21.5471 43.3711C21.6016 44.0987 21.0755 44.7367 20.3744 44.7931L16.6426 45.0937C15.9415 45.1502 15.3269 44.6041 15.2725 43.8765L15.2725 43.8765Z" fill="#6C63FF"/>
<path d="M8.98431 65.909L8.22165 55.7099C8.16724 54.9823 8.69337 54.3444 9.39445 54.2879L14.919 53.8429C15.6201 53.7865 16.2347 54.3325 16.2891 55.0601L17.0518 65.2592C17.1062 65.9868 16.5801 66.6247 15.879 66.6812L10.3545 67.1262C9.65338 67.1827 9.03872 66.6366 8.98431 65.909Z" fill="#3F3D56"/>
<path d="M23.2574 88.777C22.5878 88.8062 22.0073 88.2872 21.9357 87.5956L20.9192 77.7603C20.8758 77.3404 21.0221 76.9353 21.3205 76.6482C21.6189 76.3613 22.0195 76.2413 22.4196 76.3177L22.7047 76.3726C23.2719 76.4817 23.6992 76.9746 23.7438 77.5715L24.4752 87.3521C24.5022 87.7134 24.3895 88.0617 24.1578 88.3328C23.9364 88.5919 23.6346 88.7473 23.3037 88.774C23.2883 88.7752 23.2729 88.7763 23.2574 88.777Z" fill="#3F3D56"/>
<path d="M11.5642 88.3504L10.7993 78.1217C10.7453 77.3996 11.2469 76.7763 11.9412 76.7025L16.9529 76.171C17.6482 76.105 18.2762 76.6247 18.3507 77.3471L19.4143 87.6795C19.4512 88.0383 19.3492 88.3887 19.1269 88.6662C18.9047 88.9437 18.5915 89.1118 18.2449 89.1398L12.9344 89.5675C12.2333 89.624 11.6186 89.0779 11.5642 88.3504L11.5642 88.3504Z" fill="#3F3D56"/>
<path d="M41.7657 92.9494L46.2443 99.8938L47.3067 108.024L50.4559 107.978L48.6567 98.3892L41.5071 89.6059C41.0279 90.6914 41.1258 91.9572 41.7657 92.9494V92.9494Z" fill="#CCCCCC"/>
<path d="M47.0062 105.696L34.2464 106.907L34.2628 107.093L47.0225 105.883L47.0062 105.696Z" fill="#3F3D56"/>
<path d="M46.1085 104.117L34.0048 105.19L34.0201 105.377L46.1238 104.303L46.1085 104.117Z" fill="#3F3D56"/>
<path d="M45.3545 102.489L33.7872 103.657L33.8046 103.843L45.3719 102.675L45.3545 102.489Z" fill="#3F3D56"/>
<path d="M44.8701 100.85L33.7735 102.129L33.7934 102.315L44.89 101.035L44.8701 100.85Z" fill="#3F3D56"/>
<path d="M44.2211 99.407L33.5612 100.658L33.5815 100.844L44.2413 99.5927L44.2211 99.407Z" fill="#3F3D56"/>
<path d="M43.4091 98.1568L32.9982 98.9953L33.0121 99.1815L43.423 98.343L43.4091 98.1568Z" fill="#3F3D56"/>
<path d="M42.7725 96.8945L32.664 97.8325L32.68 98.0186L42.7886 97.0806L42.7725 96.8945Z" fill="#3F3D56"/>
<path d="M42.1355 95.6367L32.3567 96.7642L32.3766 96.9499L42.1554 95.8224L42.1355 95.6367Z" fill="#3F3D56"/>
<path d="M41.6816 94.3698L32.0136 95.3262L32.0307 95.5122L41.6986 94.5558L41.6816 94.3698Z" fill="#3F3D56"/>
<path d="M40.8667 93.139L31.6194 94.1863L31.6389 94.3721L40.8862 93.3248L40.8667 93.139Z" fill="#3F3D56"/>
<path d="M40.4253 92.0328L31.2442 92.866L31.2599 93.0521L40.4409 92.2189L40.4253 92.0328Z" fill="#3F3D56"/>
<path d="M30.2793 88.9956L29.3358 76.3777C29.2814 75.65 29.8075 75.0121 30.5086 74.9556L36.3917 74.4818C37.0928 74.4253 37.7074 74.9713 37.7618 75.699L38.7054 88.3169C38.7598 89.0444 38.2337 89.6824 37.5326 89.7388L31.6495 90.2127C30.9484 90.2692 30.3338 89.7231 30.2793 88.9956H30.2793Z" fill="#6C63FF"/>
<path d="M17.9538 108.536L7.48812 108.687L7.40375 108.688L6.77825 100.323C6.69915 99.2652 7.46403 98.3377 8.48331 98.2556L18.7698 97.4271C19.7891 97.345 20.6827 98.1389 20.7618 99.1968L21.4392 108.256L21.3496 108.263L17.9538 108.536Z" fill="#CCCCCC"/>
<path d="M29.2851 66.0522L28.5642 56.4112C28.5098 55.6836 29.0359 55.0457 29.737 54.9892L31.676 54.833C32.3771 54.7765 32.9917 55.3226 33.0461 56.0502L33.767 65.6912C33.8214 66.4187 33.2954 67.0566 32.5943 67.1131L30.6553 67.2693C29.9542 67.3258 29.3395 66.7797 29.2851 66.0522Z" fill="#3F3D56"/>
<path d="M34.4168 108.147L33.2668 100.003L31.0689 92.3185L30.4607 90.2149C29.4911 89.6391 28.3049 90.462 28.4469 91.612L28.559 92.5206L30.7569 100.205L31.9069 108.349" fill="#CCCCCC"/>
<path d="M76.7206 62.193C73.7169 63.8201 72.091 66.7475 73.0891 68.7313C74.0872 70.7151 77.3308 71.0038 80.3354 69.3757C81.5442 68.7424 82.5893 67.8179 83.3833 66.6794L96.0264 59.6184L92.7073 53.5314L80.5958 61.1386C79.2414 61.1638 77.9127 61.5253 76.7206 62.193H76.7206H76.7206Z" fill="#FFB6B6"/>
<path d="M86.849 57.4373V49.2344C86.849 48.7613 87.2198 48.3765 87.6756 48.3765H91.5002C91.956 48.3765 92.3268 48.7613 92.3268 49.2344V57.4373C92.3268 57.9103 91.956 58.2952 91.5002 58.2952H87.6756C87.2198 58.2952 86.849 57.9103 86.849 57.4373H86.849Z" fill="#6C63FF"/>
<path d="M85.4555 107.654L72.6545 107.837L67.5223 48.4456C67.3977 47.004 67.8464 45.5465 68.7533 44.4468L81.3409 29.1845C83.1029 27.0479 86.099 26.6628 88.3101 28.2888L104.076 39.8818C105.362 40.8275 112.281 46.1946 112.385 47.8271L109.097 88.6868L116.227 97.4465L116.242 97.4651L118.066 107.187L85.4555 107.654H85.4555Z" fill="#E6E6E6"/>
<path d="M82.7743 42.9941L82.5681 40.2375C82.5137 39.5099 83.0399 38.8719 83.741 38.8154L87.4728 38.5149C88.1738 38.4584 88.7884 39.0045 88.8428 39.7321L89.049 42.4887C89.1034 43.2163 88.5773 43.8542 87.8762 43.9107L84.1445 44.2112C83.4433 44.2677 82.8287 43.7217 82.7743 42.9941V42.9941Z" fill="#6C63FF"/>
<path d="M76.4861 65.0266L75.7235 54.8275C75.669 54.0999 76.1952 53.4619 76.8963 53.4055L82.4208 52.9605C83.1218 52.904 83.7365 53.4501 83.7909 54.1777L84.5536 64.3768C84.608 65.1044 84.0818 65.7423 83.3808 65.7988L77.8564 66.2437C77.1552 66.3002 76.5405 65.7542 76.4861 65.0266Z" fill="#3F3D56"/>
<path d="M88.9446 75.9027C88.6882 76.1491 88.5626 76.4974 88.6 76.858L89.6164 86.6933C89.6779 87.2874 90.1765 87.7331 90.7516 87.708C91.0541 87.6962 91.3262 87.5593 91.525 87.3265C91.7241 87.0937 91.821 86.7945 91.7977 86.4841L91.0664 76.7035C91.028 76.1908 90.661 75.7674 90.1737 75.6737L89.8885 75.6188C89.792 75.6003 89.6955 75.5951 89.6007 75.6027C89.3584 75.6222 89.1289 75.7255 88.9446 75.9027V75.9027Z" fill="#3F3D56"/>
<path d="M73.7916 88.8896C73.5224 88.6588 73.3593 88.3327 73.3322 87.9714L72.6009 78.1908C72.5562 77.5939 72.9052 77.0385 73.4494 76.8398L73.723 76.7399C74.1064 76.6005 74.5205 76.6548 74.858 76.8905C75.1956 77.1264 75.4003 77.5034 75.4199 77.925L75.8776 87.8054C75.9098 88.5001 75.4135 89.1059 74.7474 89.1842C74.7321 89.186 74.7165 89.1874 74.7011 89.1887C74.3704 89.2153 74.049 89.1099 73.7916 88.8896Z" fill="#3F3D56"/>
<path d="M109.268 92.0669L113.746 99.0113L114.808 107.141L117.958 107.095L116.159 97.5067L109.009 88.7235C108.53 89.8089 108.628 91.0747 109.268 92.0669V92.0669Z" fill="#CCCCCC"/>
<path d="M114.508 104.814L101.748 106.024L101.765 106.21L114.524 105L114.508 104.814Z" fill="#3F3D56"/>
<path d="M113.61 103.234L101.507 104.308L101.522 104.494L113.626 103.42L113.61 103.234Z" fill="#3F3D56"/>
<path d="M112.856 101.607L101.289 102.775L101.306 102.961L112.874 101.793L112.856 101.607Z" fill="#3F3D56"/>
<path d="M112.372 99.9671L101.275 101.247L101.295 101.432L112.392 100.153L112.372 99.9671Z" fill="#3F3D56"/>
<path d="M111.723 98.5245L101.063 99.7755L101.083 99.9612L111.743 98.7103L111.723 98.5245Z" fill="#3F3D56"/>
<path d="M110.911 97.2743L100.5 98.1129L100.514 98.2991L110.925 97.4606L110.911 97.2743Z" fill="#3F3D56"/>
<path d="M110.274 96.0121L100.166 96.9501L100.182 97.1361L110.29 96.1982L110.274 96.0121Z" fill="#3F3D56"/>
<path d="M109.637 94.7542L99.8585 95.8817L99.8784 96.0675L109.657 94.94L109.637 94.7542Z" fill="#3F3D56"/>
<path d="M109.183 93.4874L99.5154 94.4438L99.5325 94.6297L109.2 93.6734L109.183 93.4874Z" fill="#3F3D56"/>
<path d="M108.369 92.2566L99.1212 93.3038L99.1407 93.4896L108.388 92.4424L108.369 92.2566Z" fill="#3F3D56"/>
<path d="M107.927 91.1504L98.746 91.9836L98.7617 92.1697L107.943 91.3365L107.927 91.1504Z" fill="#3F3D56"/>
<path d="M97.7812 88.1131L96.8376 75.4953C96.7832 74.7676 97.3093 74.1296 98.0104 74.0732L103.894 73.5993C104.595 73.5428 105.209 74.0889 105.264 74.8166L106.207 87.4345C106.262 88.162 105.736 88.7999 105.034 88.8564L99.1513 89.3302C98.4502 89.3867 97.8356 88.8407 97.7812 88.1131Z" fill="#6C63FF"/>
<path d="M85.4555 107.654L74.9898 107.804L74.9056 107.805L74.2801 99.4407C74.201 98.3828 74.9659 97.4553 75.9852 97.3732L86.2717 96.5447C87.291 96.4626 88.1845 97.2565 88.2636 98.3144L88.9411 107.373L88.8514 107.381L85.4555 107.654L85.4555 107.654Z" fill="#CCCCCC"/>
<path d="M96.7869 65.1697L96.066 55.5288C96.0116 54.8011 96.5377 54.1632 97.2388 54.1068L99.1779 53.9506C99.8789 53.8941 100.494 54.4402 100.548 55.1678L101.269 64.8087C101.323 65.5363 100.797 66.1742 100.096 66.2307L98.1571 66.3869C97.456 66.4433 96.8413 65.8973 96.7869 65.1697Z" fill="#3F3D56"/>
<path d="M101.919 107.264L100.769 99.1207L98.5707 91.436L97.9625 89.3324C96.9929 88.7566 95.8068 89.5795 95.9487 90.7295L96.0609 91.6382L98.2587 99.3228L99.4087 107.466" fill="#CCCCCC"/>
<path d="M174.995 106.319L11.0576 108.525L11.0622 108.899L175 106.693L174.995 106.319Z" fill="#CCCCCC"/>
<path d="M87.1165 70.7865C86.7911 70.217 85.3833 70.8267 85.1245 70.3099C84.8666 69.795 86.1746 69.0104 86.9218 67.218C87.0566 66.8947 87.9058 64.8578 87.2771 64.2293C86.0855 63.0379 80.6327 67.9544 78.7245 66.3455C78.3057 65.9924 78.0131 65.2875 76.7456 64.1431C76.2414 63.6879 75.9365 63.4823 75.6414 63.5588C75.2227 63.6673 75.1895 64.2489 74.7406 65.3924C74.0672 67.1073 73.669 67.0038 73.2767 68.372C72.9855 69.3877 73.052 69.9782 72.7093 70.0933C72.2243 70.2561 71.778 69.1787 71.1634 69.2752C70.5362 69.3737 70.1571 70.628 70.0373 71.5672C69.8126 73.3297 70.4362 74.4926 70.7819 75.7155C71.1575 77.0445 71.3804 79.0655 70.513 81.9266L61.927 107.033C63.8225 101.882 69.3109 87.759 71.6172 82.511C72.283 80.996 73.0181 79.4593 74.5274 78.8528C75.9806 78.2689 77.9764 78.6175 80.5208 77.9814C80.8179 77.9071 81.6425 77.6893 81.7463 77.186C81.8322 76.7698 81.3471 76.5375 81.4216 76.1478C81.5216 75.6249 82.4754 75.6185 83.6475 75.0154C84.4741 74.59 84.989 74.0842 85.4318 73.6492C85.5653 73.5181 87.5497 71.5445 87.1165 70.7865H87.1165L87.1165 70.7865Z" fill="#F2F2F2"/>
<path d="M53.3366 84.0037C52.9734 84.0051 52.8556 84.8982 52.5365 84.8809C52.2185 84.8637 52.2249 83.971 51.5929 83.0732C51.4789 82.9113 50.7606 81.891 50.282 82.0299C49.3748 82.2931 50.1265 86.4893 48.815 86.9971C48.5272 87.1085 48.1095 87.0542 47.2026 87.3696C46.8418 87.4951 46.6566 87.5911 46.6076 87.7635C46.5381 88.0081 46.8036 88.1928 47.2148 88.7514C47.8316 89.5892 47.6677 89.7622 48.2015 90.3568C48.5978 90.7982 48.8963 90.9347 48.8518 91.1425C48.7889 91.4365 48.1506 91.353 48.0189 91.6939C47.8845 92.0417 48.3683 92.5968 48.7779 92.9288C49.5465 93.5518 50.2765 93.5697 50.9545 93.7464C51.6913 93.9386 52.7115 94.4081 53.8142 95.6755L63.21 107.293C61.3206 104.841 56.2255 97.9706 54.4091 95.2817C53.8848 94.5054 53.3702 93.6876 53.5189 92.7437C53.662 91.835 54.4027 90.919 54.836 89.4394C54.8866 89.2666 55.0216 88.7837 54.8135 88.5856C54.6415 88.4218 54.3917 88.6019 54.2288 88.4514C54.0104 88.2497 54.2826 87.762 54.3355 86.9909C54.3729 86.4471 54.2822 86.0389 54.2043 85.6878C54.1808 85.582 53.8201 84.0017 53.3366 84.0037V84.0037H53.3366Z" fill="#F2F2F2"/>
<path d="M60.5823 85.6917L60.3634 83.6644L60.4634 83.5108C60.9261 82.8001 61.1619 82.106 61.1647 81.4473C61.1651 81.3425 61.1604 81.2378 61.1557 81.1311C61.1368 80.7082 61.1133 80.1825 61.3774 79.5697C61.5255 79.2281 61.9414 78.4372 62.5667 78.535C62.7351 78.5595 62.8624 78.6398 62.9591 78.7338C62.9733 78.7103 62.9879 78.6868 63.0034 78.6613C63.1982 78.353 63.3524 78.2208 63.501 78.0936C63.6151 77.9957 63.733 77.8949 63.9179 77.656C63.999 77.5513 64.0622 77.4592 64.1155 77.3819C64.2772 77.148 64.4885 76.869 64.8611 76.8739C65.2591 76.8934 65.4675 77.2351 65.6057 77.4612C65.8524 77.8645 65.9641 78.1552 66.0382 78.3481C66.0651 78.4186 66.0957 78.4978 66.1113 78.5223C66.2395 78.7181 67.2823 78.535 67.6751 78.4685C68.5574 78.3158 69.321 78.1836 69.6355 78.7612C69.861 79.1743 69.6935 79.7205 69.1229 80.4282C68.9451 80.6485 68.756 80.8159 68.5881 80.947C68.7272 81.0332 68.8517 81.1653 68.9022 81.3729C69.021 81.8643 68.614 82.3566 67.693 82.8383C67.4643 82.9587 67.1563 83.1192 66.7248 83.1965C66.5216 83.2328 66.3386 83.2416 66.182 83.2465C66.1787 83.3404 66.1575 83.4423 66.1023 83.547C65.9406 83.8553 65.6038 84.0022 65.0964 83.9669C64.538 83.9366 64.0782 83.826 63.6726 83.7291C63.3185 83.6449 63.0133 83.5734 62.7738 83.5901C62.3295 83.6273 61.9872 83.9963 61.5854 84.475L60.5823 85.6917H60.5823H60.5823Z" fill="#F2F2F2"/>
<path d="M61.5973 73.6213L59.7634 74.3552L59.5948 74.2938C58.815 74.0096 58.1084 73.9489 57.4937 74.1132C57.3959 74.1393 57.2995 74.1706 57.2012 74.2024C56.8119 74.3286 56.3279 74.4856 55.6898 74.3759C55.3339 74.3139 54.4912 74.0969 54.4238 73.4443C54.4039 73.2691 54.4464 73.1209 54.5095 73C54.484 72.9918 54.4584 72.9831 54.4307 72.9739C54.0939 72.8566 53.9316 72.7353 53.7753 72.6184C53.6552 72.5287 53.5313 72.4359 53.2618 72.3109C53.1436 72.256 53.0418 72.2159 52.9562 72.182C52.6971 72.079 52.3835 71.9377 52.2936 71.5624C52.2109 71.1579 52.4764 70.8619 52.6521 70.6659C52.9654 70.3159 53.2081 70.13 53.369 70.0067C53.4279 69.9619 53.494 69.911 53.5129 69.8892C53.6628 69.7107 53.2277 68.7104 53.066 68.3329C52.6999 67.4858 52.3831 66.7529 52.8416 66.2906C53.1694 65.9595 53.721 65.989 54.5253 66.3824C54.7757 66.505 54.9797 66.6524 55.1445 66.7876C55.1895 66.6261 55.2811 66.4676 55.4617 66.3643C55.8896 66.1204 56.4517 66.4041 57.1342 67.2065C57.3045 67.4056 57.5322 67.674 57.7137 68.0876C57.799 68.2825 57.8537 68.4639 57.898 68.6199C57.9864 68.5994 58.0866 68.5949 58.1983 68.6237C58.5267 68.7079 58.7489 69.0086 58.8448 69.527C58.9582 70.0953 58.9717 70.5849 58.9842 71.0167C58.9956 71.3936 59.0064 71.718 59.0827 71.9543C59.23 72.3908 59.6608 72.6409 60.2089 72.9229L61.5974 73.6213L61.5973 73.6213V73.6213Z" fill="#F2F2F2"/>
<path d="M60.5823 67.6488L60.3634 65.6215L60.4634 65.4678C60.9261 64.7572 61.1619 64.0631 61.1647 63.4043C61.1651 63.2996 61.1604 63.1948 61.1557 63.0881C61.1368 62.6653 61.1133 62.1396 61.3774 61.5268C61.5255 61.1852 61.9414 60.3942 62.5667 60.4921C62.7351 60.5166 62.8624 60.5969 62.9591 60.6908C62.9733 60.6673 62.9879 60.6438 63.0034 60.6184C63.1982 60.31 63.3524 60.1779 63.501 60.0506C63.6151 59.9527 63.733 59.8519 63.9179 59.6131C63.999 59.5083 64.0622 59.4163 64.1155 59.339C64.2772 59.105 64.4885 58.826 64.8611 58.8309C65.2591 58.8505 65.4675 59.1921 65.6057 59.4183C65.8524 59.8216 65.9641 60.1123 66.0382 60.3051C66.0651 60.3756 66.0957 60.4549 66.1113 60.4794C66.2395 60.6752 67.2823 60.4921 67.6751 60.4255C68.5574 60.2728 69.321 60.1407 69.6355 60.7182C69.861 61.1313 69.6935 61.6775 69.1229 62.3853C68.9451 62.6055 68.756 62.7729 68.5881 62.9041C68.7272 62.9903 68.8517 63.1224 68.9022 63.3299C69.021 63.8213 68.614 64.3137 67.693 64.7953C67.4643 64.9157 67.1563 65.0763 66.7248 65.1536C66.5216 65.1898 66.3386 65.1986 66.182 65.2035C66.1787 65.2975 66.1575 65.3993 66.1023 65.5041C65.9406 65.8124 65.6038 65.9592 65.0964 65.924C64.538 65.8937 64.0782 65.783 63.6726 65.6861C63.3185 65.602 63.0133 65.5305 62.7738 65.5471C62.3295 65.5843 61.9872 65.9534 61.5854 66.432L60.5823 67.6488H60.5823H60.5823Z" fill="#F2F2F2"/>
<path d="M62.5809 107L62.1715 106.734L62.0725 106.244L62.1715 106.734L61.6943 106.791C61.6867 106.745 61.6608 106.639 61.6217 106.474C61.408 105.567 60.7568 102.809 60.2135 98.4643C59.8343 95.4317 59.6197 92.314 59.5754 89.1962C59.5311 86.0735 59.6735 83.7095 59.7876 81.8095C59.8739 80.3764 59.9786 79.0118 60.0814 77.6824C60.3549 74.131 60.6129 70.7764 60.421 67.0624C60.3785 66.2333 60.2894 64.5075 59.3179 62.6711C58.7543 61.6061 57.9781 60.6605 57.0104 59.8617L57.6121 59.0766C58.6803 59.9596 59.5391 61.007 60.1649 62.1895C61.242 64.2256 61.3392 66.1061 61.3859 67.0096C61.5811 70.7891 61.3203 74.1761 61.0439 77.7618C60.9421 79.0862 60.8374 80.4449 60.7516 81.8721C60.6384 83.7545 60.4974 86.098 60.5412 89.1805C60.5846 92.2611 60.7968 95.3407 61.1708 98.3351C61.7075 102.625 62.3493 105.342 62.5601 106.235C62.6724 106.712 62.696 106.811 62.5809 107V107L62.5809 107Z" fill="#F2F2F2"/>
<path d="M55.2391 61.4544C55.1995 61.4544 55.1594 61.4534 55.1188 61.4505C54.2963 61.4045 53.5347 60.8935 52.8547 59.9322C52.5359 59.4799 52.3727 58.9641 52.0473 57.9353C51.9968 57.7767 51.7516 56.972 51.6026 55.8649C51.505 55.1415 51.5172 54.839 51.6554 54.5718C51.8087 54.2742 52.0567 54.0667 52.3359 53.9267C52.3237 53.8308 52.3336 53.7319 52.3736 53.6311C52.5382 53.2131 52.9759 53.2679 53.2126 53.2943C53.3324 53.31 53.4819 53.3305 53.6432 53.3217C53.8969 53.309 54.0332 53.2307 54.2398 53.1132C54.4374 53.0006 54.6831 52.8607 55.0476 52.7833C55.7663 52.6277 56.3685 52.8391 56.5671 52.9086C57.6117 53.2698 58.1267 54.1127 58.7228 55.0886C58.8416 55.2844 59.2495 55.997 59.5188 56.974C59.7131 57.6788 59.6858 57.992 59.6273 58.225C59.5084 58.7037 59.2278 58.9778 58.5152 59.5827C57.7711 60.2161 57.3976 60.5332 57.0769 60.7261C56.3303 61.1734 55.8616 61.4544 55.2391 61.4544V61.4544H55.2391Z" fill="#F2F2F2"/>
</g>
<defs>
<clipPath id="clip0_91_1043">
<rect width="175" height="108.899" fill="white" transform="translate(0 -0.000976562)"/>
</clipPath>
</defs>
</svg>
